<?xml version="1.0" encoding="utf-8"?>
<!-- Generator: Adobe Illustrator 17.1.0, SVG Export Plug-In . SVG Version: 6.00 Build 0)  -->
<!DOCTYPE svg PUBLIC "-//W3C//DTD SVG 1.1//EN" "http://www.w3.org/Graphics/SVG/1.1/DTD/svg11.dtd">
<svg version="1.1" id="圖層_1" xmlns="http://www.w3.org/2000/svg" xmlns:xlink="http://www.w3.org/1999/xlink" x="0px" y="0px"
	 viewBox="0 0 240 120" enable-background="new 0 0 240 120" xml:space="preserve">
<rect x="12.3" y="40.4" fill="none" width="109.7" height="59.2"/>
<path d="M115.2,40.6c-10-2.5-37.6,15.9-43.2,19.7c-2-0.5-4.2-0.9-6.5-1.2c2.1,1.6,4.2,3.8,6,6.8c2.4,0.6,4,1.3,4.9,1.8
	C73.8,69.4,63.9,72,47.4,72c-16.6,0-26.5-2.6-29.1-4.3c0.8-0.5,2.3-1.1,4.5-1.7c-0.5-1.6-0.9-3.4-1.3-5.4c-5.3,1.5-9.2,3.7-9.2,7.1
	c0,0.8,0.2,1.5,0.6,2.2l5,23.7c0,0,10.4,4.7,29.4,5.1c19,0.4,31.1-6.7,31.1-6.7L82,69.6c0.3-0.6,0.4-1.2,0.4-1.9
	c0-2.3-1.8-4.1-4.7-5.5c5.1-5.6,32.6-15.8,38.6-13.8C121.3,49.7,123.1,42.1,115.2,40.6z"/>
<path d="M69.4,67.5c-0.1-0.1-0.2-0.2-0.2-0.3c-5-6.4-10.1-9.4-15.3-9c-2.2-3.8-4.1-6.8-5.9-9.3c9.3-8.3,3.2-12.3-2-28.4
	c-1.2,3.4-2.2,6-2.9,7.6c-3.7-0.5-12-0.5-15.7,0c-0.7-1.6-1.7-4.2-2.9-7.6c-5.3,16.2-11.4,20.1-2,28.4c0.4,8.5,1.5,14.2,3,18.7
	c0,0,17.8,4.7,42.1,0H69.4z M44.1,34.5c2.8-0.1,3.7,3.1-2.1,3.5h-2.9C40.5,35.7,42.5,34.6,44.1,34.5z M26.4,34.5
	c1.6,0.1,3.6,1.2,5,3.5h-2.9C22.7,37.6,23.5,34.4,26.4,34.5z"/>
<g>
	<path d="M103.5,68.4c3.5,0,6.1,0.6,7.9,1.9c1.8,1.3,2.8,3.2,2.8,5.9c0,1.4-0.2,2.6-0.7,3.6c-0.5,1-1.2,1.8-2.1,2.4
		c-0.9,0.6-2.1,1.1-3.4,1.4c-1.4,0.3-2.9,0.4-4.6,0.4h-2.2v8.4h-4.3V69c1-0.2,2.1-0.4,3.3-0.5C101.3,68.5,102.5,68.4,103.5,68.4z
		 M103.8,72.2c-1.1,0-2,0-2.7,0.1v8.1h2.1c2.1,0,3.7-0.3,4.8-0.9c1.1-0.6,1.7-1.7,1.7-3.3c0-0.8-0.1-1.4-0.4-2
		c-0.3-0.5-0.7-0.9-1.2-1.2c-0.5-0.3-1.1-0.5-1.9-0.6S104.6,72.2,103.8,72.2z"/>
	<path d="M125,74.1c1.4,0,2.5,0.2,3.5,0.5c0.9,0.3,1.7,0.8,2.2,1.4c0.6,0.6,1,1.4,1.2,2.2s0.4,1.8,0.4,2.9V92
		c-0.6,0.1-1.6,0.3-2.9,0.5s-2.8,0.3-4.4,0.3c-1.1,0-2.1-0.1-3-0.3s-1.7-0.5-2.3-1c-0.6-0.5-1.1-1.1-1.5-1.8
		c-0.4-0.7-0.5-1.6-0.5-2.7c0-1,0.2-1.9,0.6-2.6c0.4-0.7,0.9-1.3,1.6-1.7s1.5-0.8,2.4-1c0.9-0.2,1.8-0.3,2.8-0.3
		c0.5,0,0.9,0,1.4,0.1c0.5,0.1,1,0.2,1.6,0.3v-0.7c0-0.5-0.1-0.9-0.2-1.4s-0.3-0.8-0.6-1.2c-0.3-0.3-0.7-0.6-1.1-0.8
		c-0.5-0.2-1.1-0.3-1.8-0.3c-1,0-1.8,0.1-2.6,0.2c-0.8,0.1-1.5,0.3-2,0.5l-0.5-3.4c0.5-0.2,1.3-0.4,2.3-0.5
		C122.8,74.1,123.9,74.1,125,74.1z M125.4,89.5c1.3,0,2.3-0.1,2.9-0.2v-4.6c-0.2-0.1-0.6-0.1-1-0.2c-0.4-0.1-0.9-0.1-1.4-0.1
		c-0.5,0-0.9,0-1.4,0.1c-0.5,0.1-0.9,0.2-1.3,0.4c-0.4,0.2-0.7,0.4-0.9,0.8c-0.2,0.3-0.3,0.8-0.3,1.3c0,1,0.3,1.7,0.9,2
		C123.5,89.3,124.3,89.5,125.4,89.5z"/>
	<path d="M139.1,75.1c0.8-0.2,1.8-0.4,3.1-0.7s2.7-0.3,4.3-0.3c1.5,0,2.7,0.2,3.7,0.6c1,0.4,1.8,1,2.4,1.7c0.6,0.7,1,1.6,1.2,2.6
		s0.4,2.1,0.4,3.3v10.1H150V83c0-1-0.1-1.8-0.2-2.5c-0.1-0.7-0.3-1.2-0.6-1.6c-0.3-0.4-0.7-0.7-1.2-0.9c-0.5-0.2-1.1-0.3-1.8-0.3
		c-0.5,0-1.1,0-1.6,0.1s-1,0.1-1.3,0.2v14.5h-4.2V75.1z"/>
	<path d="M181.4,93c-1.8,0-3.4-0.3-4.8-0.8c-1.4-0.5-2.6-1.4-3.6-2.4c-1-1.1-1.7-2.4-2.3-3.9s-0.8-3.3-0.8-5.3s0.3-3.8,0.9-5.3
		s1.4-2.8,2.5-3.9c1.1-1.1,2.3-1.9,3.7-2.4c1.4-0.5,2.9-0.8,4.6-0.8c1,0,1.9,0.1,2.7,0.2c0.8,0.1,1.5,0.3,2.1,0.5
		c0.6,0.2,1.1,0.4,1.5,0.6c0.4,0.2,0.7,0.4,0.8,0.4l-1.3,3.5c-0.5-0.3-1.3-0.7-2.4-1c-1-0.3-2.1-0.5-3.3-0.5c-1,0-2,0.2-2.9,0.5
		c-0.9,0.4-1.7,0.9-2.3,1.6s-1.2,1.6-1.5,2.7c-0.4,1.1-0.5,2.3-0.5,3.7c0,1.3,0.1,2.4,0.4,3.5c0.3,1.1,0.7,2,1.3,2.7
		c0.6,0.8,1.3,1.4,2.3,1.8c0.9,0.4,2,0.6,3.3,0.6c1.5,0,2.8-0.2,3.7-0.5c1-0.3,1.7-0.6,2.2-0.9l1.2,3.5c-0.3,0.2-0.6,0.4-1.1,0.5
		c-0.5,0.2-1,0.4-1.7,0.5c-0.6,0.2-1.4,0.3-2.2,0.4C183.2,92.9,182.3,93,181.4,93z"/>
	<path d="M200.2,74.1c1.4,0,2.5,0.2,3.5,0.5c0.9,0.3,1.7,0.8,2.2,1.4c0.6,0.6,1,1.4,1.2,2.2s0.4,1.8,0.4,2.9V92
		c-0.6,0.1-1.6,0.3-2.9,0.5s-2.8,0.3-4.4,0.3c-1.1,0-2.1-0.1-3-0.3s-1.7-0.5-2.3-1c-0.6-0.5-1.1-1.1-1.5-1.8
		c-0.4-0.7-0.5-1.6-0.5-2.7c0-1,0.2-1.9,0.6-2.6c0.4-0.7,0.9-1.3,1.6-1.7s1.5-0.8,2.4-1c0.9-0.2,1.8-0.3,2.8-0.3
		c0.5,0,0.9,0,1.4,0.1c0.5,0.1,1,0.2,1.6,0.3v-0.7c0-0.5-0.1-0.9-0.2-1.4s-0.3-0.8-0.6-1.2c-0.3-0.3-0.7-0.6-1.1-0.8
		c-0.5-0.2-1.1-0.3-1.8-0.3c-1,0-1.8,0.1-2.6,0.2c-0.8,0.1-1.5,0.3-2,0.5l-0.5-3.4c0.5-0.2,1.3-0.4,2.3-0.5
		C198,74.1,199.1,74.1,200.2,74.1z M200.6,89.5c1.3,0,2.3-0.1,2.9-0.2v-4.6c-0.2-0.1-0.6-0.1-1-0.2c-0.4-0.1-0.9-0.1-1.4-0.1
		c-0.5,0-0.9,0-1.4,0.1c-0.5,0.1-0.9,0.2-1.3,0.4c-0.4,0.2-0.7,0.4-0.9,0.8c-0.2,0.3-0.3,0.8-0.3,1.3c0,1,0.3,1.7,0.9,2
		C198.7,89.3,199.5,89.5,200.6,89.5z"/>
	<path d="M214.1,69.8l4.2-0.7v5.4h6.4V78h-6.4v7.3c0,1.4,0.2,2.5,0.7,3.1c0.5,0.6,1.2,0.9,2.3,0.9c0.8,0,1.4-0.1,2-0.2
		c0.6-0.2,1-0.3,1.4-0.4l0.7,3.3c-0.5,0.2-1.1,0.4-1.9,0.6c-0.8,0.2-1.7,0.3-2.7,0.3c-1.3,0-2.4-0.2-3.2-0.5c-0.9-0.3-1.5-0.8-2-1.5
		c-0.5-0.7-0.9-1.4-1.1-2.4s-0.3-2-0.3-3.2V69.8z"/>
</g>
</svg>
